<?xml version="1.0" encoding="utf-8"?>
<!-- Generator: Adobe Illustrator 28.0.0, SVG Export Plug-In . SVG Version: 6.00 Build 0)  -->
<svg version="1.1" id="Laag_1" xmlns="http://www.w3.org/2000/svg" xmlns:xlink="http://www.w3.org/1999/xlink" x="0px" y="0px"
	 viewBox="0 0 2164.3 1530.3" style="enable-background:new 0 0 2164.3 1530.3;" xml:space="preserve">
<style type="text/css">
	.st0{fill:#FFDC33;}
</style>
<g>
	<path d="M988.8,471.8l0.7-4.1c73.6-4.1,95.4-48.4,94.7-117.2c-0.7-78.4-37.5-122.6-125.4-122.6H807.5v449.7h106.3V505.1h25.9
		c24.5,0,30.7,16.4,30.7,48.4v96.8c0,15,12.1,27.2,27.1,27.2h79.8V567.1C1077.3,507.2,1068.5,471.8,988.8,471.8z M939,436.3h-25.2
		V309.6h26.6c26.6,0,30.7,21.1,30.7,64C971,422,965.6,436.3,939,436.3z"/>
	<path d="M1239.5,221c-79.7,0-141.7,51.1-141.7,128.8v205.8c0,77.7,62,128.8,141.7,128.8c77.7,0,136.3-51.1,136.3-128.8V349.8
		C1375.7,272.1,1317.1,221,1239.5,221z M1268.8,571.2c0,21.8-12.3,32-31.3,32c-19.8,0-32.7-11.6-32.7-32.7V334.8
		c0-21.1,12.9-32,32.7-32c19.1,0,31.3,10.9,31.3,32V571.2z"/>
	<path d="M1728.7,227.9l-21.1,273.9h-8.2L1666,227.9h-109.7l-37.5,273.9h-8.9l-24.5-273.9h-109.7l70.2,449.7h126.7l36.8-260.2
		l30.7,260.2h131.5l66.8-449.7H1728.7z"/>
</g>
<path d="M993.2,971.8l0.7-4.1c73.6-4.1,95.4-48.4,94.7-117.2c-0.7-78.3-37.5-122.6-125.4-122.6H812v449.7h106.3v-172.4h25.9
	c24.5,0,30.7,16.3,30.7,48.4v96.8c0,15,12.1,27.1,27.1,27.1h79.8v-110.4C1081.8,1007.2,1072.9,971.8,993.2,971.8z M943.5,936.4
	h-25.2V809.7h26.6c26.6,0,30.7,21.1,30.7,64C975.5,922.1,970.1,936.4,943.5,936.4z"/>
<path d="M1243.9,721.1c-79.7,0-141.7,51.1-141.7,128.8v205.8c0,77.7,62,128.8,141.7,128.8c77.7,0,136.3-51.1,136.3-128.8V849.9
	C1380.2,772.2,1321.6,721.1,1243.9,721.1z M1273.2,1071.3c0,21.8-12.3,32-31.3,32c-19.8,0-32.7-11.6-32.7-32.7V834.9
	c0-21.1,12.9-32,32.7-32c19.1,0,31.3,10.9,31.3,32V1071.3z"/>
<path d="M1670.4,727.9h-105.6v343.4c0,21.1-12.9,32-31.3,32c-19.8,0-33.4-10.2-33.4-32V727.9h-106.3v327
	c0,76.3,62.7,129.4,141.7,129.4c75.6,0,135.6-52.4,135.6-128.8L1670.4,727.9z"/>
<path d="M1840.1,727.9h-155.3v449.7H1791V998.4h36.8c90.6,0,145.1-53.8,146.5-130.8C1973.6,785.1,1924.5,727.9,1840.1,727.9z
	 M1819.6,917.3l-28.6-0.7v-107h28.6c25.2,0,34.1,15,34.1,56.5C1853.7,904.4,1844.8,917.3,1819.6,917.3z"/>
<path d="M180.5,701.4l-65.3,51.2l123.5,160.8l64.8-51.8l-0.1-0.2l2.2,2.8l6.3,1.6l0,0l-66.2,52.8l178.8,45.4l97.9-78.6v170.1
	c0,77,64,128.8,141.7,128.8c74.3,0,134.2-51.8,134.2-128.8V937.1l-139-18.4L648.5,997l42.9,6.8v68.8c0,19.8-13.6,30.7-30,30.7
	c-17,0-31.3-12.3-31.3-31.3V832.8c0-19.1,15-30,32-30c16.3,0,30,10.9,30,30v76.3h106.3v-59.3c0-77-59.9-128.8-134.2-128.8
	c-18.1,0-35.4,2.8-51.4,8.1l-0.2-51.6c14.8,4.4,30.7,6.8,47.2,6.8c74.3,0,134.2-51.8,134.2-128.8v-67.5h-107v84.5
	c0,19.8-13.6,30.7-30,30.7c-17,0-31.3-12.3-31.3-31.3V332.8c0-19.1,15-30,32-30c16.3,0,30,10.9,30,30v76.3h106.3v-59.3
	c0-77-59.9-128.8-134.2-128.8C582,221,518,272.8,518,349.8v147.1l-35.9-46.7l-182.3-45.8L110.8,555.5v0.4l0.8,188.5l66.3-51.9l0,0
	l0,5.6L180.5,701.4L180.5,701.4"/>
<polygon class="st0" points="606.5,809.8 482.7,909.2 305.6,864.3 177.9,698 177.1,511.2 300.9,411.6 478.3,456 605.7,621.9 "/>
<polygon points="457.4,799.6 447.2,801.6 436.9,803.6 435.2,798.7 427.9,778.9 428,778.9 428,778.8 448.4,774.9 453.9,790.1 
	456.6,797.3 "/>
<polygon points="415.7,807.6 415.7,807.6 415.7,807.6 406,809.4 394.4,811.6 385.4,786.8 388.3,786.3 406.7,782.8 406.7,782.8 "/>
<path d="M503.3,691.6l19.3-3.6l-25.3-69.3l15.6-2.9l5.7-1.1l-2.8-7.8l-6.2-16.9l-6,1.1l-8.4,1.6h0l-6.9,1.3l-7.1-19.5v0l-1.9-5.2
	l-1.9,0.3l-17.5,3.3l-8.1-22.3L388,562.5l9,24.7l-16,3l8.1,22.3l-41.7,7.8l-9-24.8l-42.6,8l-9-24.7l-50.7,9.5l-13.2,2.5l9,24.7
	l21.3-4l9,24.8l9.4-1.8l11.9-2.2l9,24.7l21.3-4l8.1,22.3l23.9-4.5l8.4,23l-19.4,3.6l8.8,24l-4.5,0.9l-16.8,3.1l7.8,21.3l-21.3,4
	l9,24.8l42.6-8l-7.8-21.3l4.2-0.8l15.2-2.8l7.8,21.3l18.6-3.5l8.2,22.4h0l21.2-4l0,0l0,0l-8.2-22.4l20.4-3.8l8.2,22.2l1.1-0.2
	l13-2.4l7.2-1.3l-1.6-4.4l-2.9-8l-3.7-9.9l16.2-3l13-2.4l8.2-1.5l-1.8-5l-2.9-8l-3-8.3l13.5-2.5l7.8-1.5l-1.7-4.8L503.3,691.6z
	 M456.7,626.3l-9-24.7l15.2-2.8l9,24.7L456.7,626.3z"/>
<polygon points="388,562.5 366.7,566.4 357.7,541.7 378.9,537.7 "/>
</svg>
