<?xml version="1.0" encoding="utf-8"?>
<!-- Generator: Adobe Illustrator 25.0.0, SVG Export Plug-In . SVG Version: 6.00 Build 0)  -->
<svg version="1.1" id="Livello_1" xmlns="http://www.w3.org/2000/svg" xmlns:xlink="http://www.w3.org/1999/xlink" x="0px" y="0px"
	 viewBox="0 0 1000 312.1" style="enable-background:new 0 0 1000 312.1;" xml:space="preserve">
<style type="text/css">
	.st0{fill:#292D34;}
	.st1{fill:url(#SVGID_1_);}
	.st2{fill:url(#SVGID_2_);}
</style>
<g>
	<g>
		<path class="st0" d="M424,82.4l-0.2,126c0,3.9,1.2,6.8,3.5,8.7c2.3,1.9,5.7,2.9,10.2,2.9h9.3l4,23.2c-1.9,0.9-4.5,1.7-7.9,2.4
			c-3.4,0.7-6.9,1.2-10.5,1.6c-3.6,0.4-6.6,0.6-9.1,0.6c-10.4,0-18.6-2.7-24.6-8.1c-6-5.4-9.1-13-9.1-22.8V82.4H424z"/>
		<path class="st0" d="M571.8,144.1c-3.5-6.1-8.6-10.5-15.2-13c-6.7-2.6-14.8-3.8-24.4-3.8c-5.7,0-12.2,0.3-19.5,0.8
			c-7.3,0.5-14.6,1.2-21.9,2c-7.3,0.8-13.7,1.7-19.3,2.8l3.3,22.8c9.3-0.6,18.4-1.1,27.2-1.5c8.8-0.4,16.2-0.6,22.1-0.6
			c7.1,0,12,1.2,14.5,3.7c2.6,2.5,3.8,6.4,3.8,11.9v5.3h-41.6c-10.9,0-19.4,2.6-25.6,7.7c-6.2,5.1-9.3,12.2-9.3,21.4v11.9
			c0,7.1,1.6,13.1,4.9,17.9c3.3,4.8,7.7,8.5,13.3,10.9c5.6,2.5,11.9,3.7,18.8,3.7c7.1,0,13.5-1.2,19.1-3.5
			c5.6-2.3,10.5-5.2,14.6-8.5c3.7-3,6.9-6,9.4-9.1l3.6,18.3H577v-75.8C577,158.7,575.2,150.3,571.8,144.1z M540.7,213.1
			c-4.7,3.1-9.3,5.5-14.1,7.2c-4.7,1.7-9.1,2.6-13.1,2.6c-4.8,0-8.3-1-10.5-3.1c-2.2-2.1-3.3-5.1-3.3-9v-5.6c0-3.4,0.9-6.1,2.7-8.1
			c1.8-2,4.8-3,9-3l30.9-0.1v18C541.8,212.3,541.3,212.7,540.7,213.1z"/>
		<path class="st0" d="M647.7,127.3c5.6,0,11.6,0.2,18.1,0.6c6.5,0.4,12.9,0.9,19.1,1.5c6.2,0.6,11.7,1.4,16.5,2.3l-2.3,21.4
			c-7.4-0.2-14.9-0.3-22.4-0.3c-7.5-0.1-14.8-0.1-22-0.1c-6-0.2-10.7-0.1-13.9,0.2c-3.3,0.3-5.5,1-6.9,2.2c-1.3,1.2-2,3.2-2,6.2
			c0,3.4,1.2,5.7,3.5,6.9c2.3,1.2,6.2,2.4,11.6,3.8l30,7.2c9.6,2.5,16.7,6.2,21.4,11c4.6,4.9,7,12.2,7,22c0,9.6-1.8,17-5.3,22.1
			c-3.6,5.1-9.2,8.6-17,10.6c-7.8,1.9-17.7,2.9-30,2.9c-4.8,0-11.9-0.2-21.4-0.7c-9.5-0.5-19.8-1.6-31.1-3.5l2.3-21.4
			c2.8,0.2,6.4,0.3,10.7,0.3c4.3,0.1,9.1,0.1,14.2,0.1c5.1,0,10.2,0,15.3,0c7.9,0,13.9-0.2,18.1-0.6c4.2-0.4,7.1-1.3,8.6-2.7
			c1.5-1.4,2.3-3.5,2.3-6.3c0-3.4-1.3-5.7-4-7c-2.6-1.2-6.8-2.6-12.6-4l-29.1-7.2c-7.3-2-12.9-4.6-17-7.7c-4-3.1-6.9-6.9-8.5-11.4
			c-1.6-4.5-2.4-9.8-2.4-16c0-7.9,1.6-14.2,4.8-18.9c3.2-4.7,8.4-8.2,15.6-10.3C626.2,128.4,635.7,127.3,647.7,127.3z"/>
		<path class="st0" d="M780.9,127.3c4.2,0,8.8,0.2,13.7,0.6c5,0.4,10,1.1,15,2.1c5,1,9.6,2.4,13.8,4.3l-3.7,21.6
			c-6.2-0.2-12.1-0.3-17.8-0.5c-5.7-0.2-10.7-0.2-15.2-0.2c-7,0-12.5,0.9-16.5,2.8c-4,1.9-6.9,5.2-8.7,9.9
			c-1.8,4.7-2.7,11.3-2.7,19.6c0,8.5,0.9,15.2,2.7,20c1.8,4.8,4.7,8.1,8.7,10c4,1.9,9.5,2.8,16.5,2.8c2.5,0,5.7-0.1,9.5-0.2
			c3.9-0.2,8.1-0.3,12.6-0.6c4.5-0.2,8.9-0.7,13.3-1.3l3.3,21.9c-6.2,2.8-13.3,4.8-21.2,6c-7.9,1.2-15.7,1.9-23.5,1.9
			c-14.3,0-25.6-2-34.1-5.9c-8.5-4-14.5-10.3-18.3-19.2c-3.7-8.8-5.6-20.6-5.6-35.3c0-14.7,1.9-26.5,5.7-35.3
			c3.8-8.8,10-15.2,18.5-19.1C755.4,129.2,766.8,127.3,780.9,127.3z"/>
		<path class="st0" d="M898.9,127.3c14.4,0,26,2,34.6,5.9c8.7,4,14.9,10.3,18.7,19.2c3.8,8.8,5.7,20.7,5.7,35.6
			c0,14.6-1.9,26.3-5.7,35.1c-3.8,8.8-10,15.2-18.7,19.1c-8.7,3.9-20.2,5.8-34.6,5.8c-14.3,0-25.8-1.9-34.5-5.8
			c-8.8-3.9-15.1-10.2-18.9-19.1c-3.9-8.8-5.8-20.5-5.8-35.1c0-14.9,1.9-26.7,5.8-35.6c3.9-8.8,10.2-15.2,18.9-19.2
			C873.2,129.3,884.7,127.3,898.9,127.3z M870.4,68.7l47.2,34.4l-10,14.6l-52.1-26L870.4,68.7z M898.9,152.4c-5.9,0-10.5,1-13.9,3
			c-3.4,2-5.8,5.6-7.2,10.7c-1.4,5.1-2.1,12.4-2.1,21.9c0,9.3,0.7,16.5,2.1,21.6c1.4,5.1,3.8,8.6,7.2,10.6c3.4,1.9,8.1,2.9,13.9,2.9
			c5.9,0,10.5-1,13.9-2.9c3.4-1.9,5.8-5.5,7.2-10.6c1.4-5.1,2.1-12.3,2.1-21.6c0-9.5-0.7-16.7-2.1-21.9c-1.4-5.1-3.8-8.7-7.2-10.7
			C909.5,153.4,904.8,152.4,898.9,152.4z"/>
	</g>
	<g>
		<linearGradient id="SVGID_1_" gradientUnits="userSpaceOnUse" x1="299.0723" y1="108.1319" x2="206.6204" y2="48.0929">
			<stop  offset="0" style="stop-color:#F3AB4B"/>
			<stop  offset="0.1836" style="stop-color:#F3A74E"/>
			<stop  offset="0.4198" style="stop-color:#F19B57"/>
			<stop  offset="0.6846" style="stop-color:#EE8660"/>
			<stop  offset="0.9686" style="stop-color:#EA6667"/>
			<stop  offset="0.9898" style="stop-color:#EA6367"/>
		</linearGradient>
		<path class="st1" d="M253.2,23.2h-0.8c-30.1,0-54.6,24.4-54.6,54.6v0.8c0,30.1,24.4,54.6,54.6,54.6h0.8
			c30.1,0,54.6-24.4,54.6-54.6v-0.8C307.8,47.6,283.4,23.2,253.2,23.2z"/>
		<linearGradient id="SVGID_2_" gradientUnits="userSpaceOnUse" x1="206.4798" y1="312.1515" x2="89.184" y2="21.8341">
			<stop  offset="5.583756e-02" style="stop-color:#73AACA"/>
			<stop  offset="0.3883" style="stop-color:#13849E"/>
			<stop  offset="0.5082" style="stop-color:#6B8494"/>
			<stop  offset="0.7484" style="stop-color:#BA7A7D"/>
			<stop  offset="0.918" style="stop-color:#DD6B6D"/>
			<stop  offset="1" style="stop-color:#EA6367"/>
		</linearGradient>
		<path class="st2" d="M253.2,179h-0.8c-15.2,0-29,6.2-38.9,16.3c-9.8,9.7-23.4,15.7-38.3,15.7h-0.8c-14.9,0-28.4-6-38.3-15.7
			c-0.2-0.2-0.4-0.4-0.6-0.6c-9.7-9.8-15.7-23.4-15.7-38.3v-0.8c0-14.9,6-28.4,15.7-38.3c10.1-9.9,16.3-23.7,16.3-38.9v-0.8
			c0-30.1-24.4-54.6-54.6-54.6h-0.8C66.4,23.2,42,47.6,42,77.7v0.8c0,15.2,6.2,29,16.3,38.9C68,127.2,74,140.7,74,155.7v0.8
			c0,14.9-6,28.4-15.7,38.3C48.2,204.6,42,218.4,42,233.6v0.8c0,30.1,24.4,54.6,54.6,54.6h0.8c15.2,0,29-6.2,38.9-16.3
			c9.8-9.7,23.4-15.7,38.3-15.7h0.8c14.9,0,28.4,6,38.3,15.7c9.9,10.1,23.7,16.3,38.9,16.3h0.8c30.1,0,54.6-24.4,54.6-54.6v-0.8
			C307.8,203.5,283.4,179,253.2,179z M59.3,118.4c-0.4-0.3-0.7-0.6-1-1C58.6,117.7,59,118.1,59.3,118.4z M213.6,195.3
			c-0.3,0.3-0.7,0.7-1,1C212.9,196,213.2,195.7,213.6,195.3z"/>
	</g>
</g>
</svg>
